<svg xmlns="http://www.w3.org/2000/svg" width="216.3" height="338.6" viewBox="0 0 216.3 338.6"><style type="text/css">.st0{fill:#00578E;} .st1{fill:#FFFFFF;}</style><path class="st0" d="M0 0v338.6h216.3v-338.6h-216.3zm213.1 335.5h-209.9v-332.3h209.9v332.3z"/><path class="st1" d="M3.2 3.2v332.3h209.9v-332.3h-209.9zm204.4 327.4h-199.1v-321.5h199.1v321.5z"/><path class="st0" d="M8.5 9.1h199.1v321.5h-199.1z"/><path class="st1" d="M41.8 281.3c1.6-.5 2.8-1.2 3.8-2.2 1.2-1.2 2.2-2.8 2.8-4.8.5-1.6.8-3.6.8-5.8 0-2.6-.3-4.7-.9-6.5s-1.4-3.2-2.5-4.4-2.4-2-4-2.5c-1.2-.3-2.8-.5-5.1-.5h-9.8v27.3h10.1c2-.1 3.6-.3 4.8-.6zm-9.5-4.1v-18.1h2.4c2.2 0 3.7.1 4.4.3 1 .2 1.8.7 2.5 1.3.7.6 1.2 1.5 1.5 2.6.4 1.1.5 2.8.5 4.9s-.2 3.8-.5 5-.8 2.1-1.4 2.6c-.6.5-1.3.9-2.2 1.1-.7.2-1.7.3-3.2.3h-4zm26.5 4.2c-1.3-.6-2.3-1.4-3.1-2.3s-1.3-2-1.5-3c-.4-1.6-.5-3.9-.5-6.9v-14.6h5.4v14.8c0 2.3.1 3.9.2 4.6.2 1.1.8 2 1.6 2.7.9.7 2 1 3.5 1s2.7-.3 3.4-1c.8-.6 1.2-1.4 1.4-2.4.2-.9.2-2.5.2-4.6v-15.1h5.4v14.3c0 3.3-.1 5.6-.4 6.9-.3 1.4-.8 2.5-1.6 3.4-.8.9-1.8 1.7-3.1 2.2-1.3.6-3 .8-5.1.8-2.5.1-4.5-.2-5.8-.8zm27.1-11h1.1c1.2 0 2.1.1 2.7.3.6.2 1.1.6 1.6 1.1.5.6 1.4 1.9 2.8 4l3.9 5.9h6.4l-3.2-5.3c-1.3-2.1-2.3-3.6-3.1-4.4-.8-.8-1.7-1.6-2.9-2.3 2.3-.3 4.1-1.2 5.3-2.5 1.2-1.3 1.8-3 1.8-5.1 0-1.6-.4-3-1.2-4.3-.8-1.3-1.8-2.1-3.1-2.6s-3.3-.7-6.2-.7h-11.3v27.3h5.4v-11.4zm0-11.2h4.2c2.2 0 3.5 0 3.9.1.9.1 1.5.5 2 1.1s.7 1.3.7 2.2c0 .8-.2 1.5-.5 2-.4.5-.9.9-1.5 1.2-.6.2-2.2.3-4.8.3h-4v-6.9zm37.3-4.7h5.4v27.3h-5.4v-11.9h-10.5v11.9h-5.4v-27.3h5.4v10.7h10.5v-10.7zm18.6 0l-10.3 27.3h5.7l2.2-6.2h10.6l2.3 6.2h5.8l-10.6-27.3h-5.7zm-.9 16.5l3.6-10.1 3.7 10.1h-7.3zm24.9 10.8h-5v-27.3h8l4.8 18.6 4.8-18.6h8v27.3h-5v-21.5l-5.3 21.5h-5.2l-5.3-21.5v21.5h.2zm-120.8 25.6c-.8-.8-1.7-1.6-2.9-2.3 2.3-.3 4.1-1.2 5.3-2.5s1.8-3 1.8-5.1c0-1.6-.4-3-1.2-4.3s-1.8-2.1-3.1-2.6-3.4-.7-6.2-.7h-11.3v27.3h5.4v-11.4h1.1c1.2 0 2.1.1 2.7.3.6.2 1.1.6 1.6 1.1.5.6 1.5 1.9 2.8 4l3.9 5.9h6.4l-3.3-5.3c-1.2-2.1-2.2-3.5-3-4.4zm-8.2-6h-4v-6.9h4.2c2.2 0 3.5 0 3.9.1.9.1 1.6.5 2 1.1.5.6.7 1.3.7 2.2 0 .8-.2 1.5-.5 2-.4.5-.9.9-1.5 1.2s-2.3.3-4.8.3zm26.5 11.2h14.9v4.6h-20.3v-27.3h19.8v4.6h-14.4v6.1h13.4v4.6h-13.4v7.4zm35.5-10.1h11.6v10.9c-1.1 1.1-2.8 2.1-4.9 3-2.1.8-4.3 1.3-6.5 1.3-2.8 0-5.2-.6-7.3-1.8-2.1-1.2-3.6-2.9-4.7-5.1-1-2.2-1.6-4.7-1.6-7.3 0-2.8.6-5.4 1.7-7.6 1.2-2.2 2.9-3.9 5.1-5.1 1.7-.9 3.8-1.4 6.4-1.4 3.3 0 5.9.7 7.8 2.1s3.1 3.4 3.6 5.9l-5.4 1c-.4-1.3-1.1-2.4-2.1-3.2-1-.8-2.3-1.2-3.9-1.2-2.4 0-4.2.8-5.6 2.3s-2.1 3.8-2.1 6.8c0 3.2.7 5.7 2.1 7.3 1.4 1.6 3.3 2.4 5.5 2.4 1.1 0 2.3-.2 3.4-.7s2.1-1 2.9-1.6v-3.5h-6.2v-4.5h.2zm20.1-12.6h5.4v27.3h-5.4v-27.3zm25.9-.5c-2.2 0-4.1.4-5.8 1.1-1.3.5-2.4 1.4-3.5 2.5s-1.9 2.4-2.5 3.7c-.8 1.9-1.2 4.2-1.2 7 0 4.3 1.2 7.8 3.5 10.2 2.3 2.5 5.5 3.7 9.5 3.7 3.9 0 7.1-1.2 9.4-3.7s3.5-5.9 3.5-10.3-1.2-7.9-3.5-10.4-5.4-3.8-9.4-3.8zm5.4 21.2c-1.4 1.6-3.1 2.4-5.3 2.4-2.1 0-3.9-.8-5.3-2.4-1.4-1.6-2.1-3.9-2.1-7s.7-5.5 2-7c1.4-1.6 3.2-2.3 5.4-2.3s4 .8 5.3 2.3 2 3.9 2 7c0 3-.7 5.4-2 7zm36.7-20.7v27.3h-5.4l-10.8-17.8v17.8h-5v-27.3h5.2l10.9 18.2v-18.2h5.1zM27.6 23h66.9l5.8.7 4.5.6 4.2.8 4.8 1.2 4.4 1.3 7.6 2.7 5.3 2.4 3.6 1.9 4 2.3 3.8 2.2 2.8 2.1 3.6 2.5 4.3 3.5 2 1.8 2.6 2.5 2.2 2.3 2.2 2.3 3.4 3.9 4.8 6.2 2.4 3.7 2.6 4.3 2.9 5 3.4 6.8 3.4 9.1 2.4 7.8 1.6 6.6 1.2 7 .6 6.7.4 5.3v7l-.4 6.2-1.2 9.5-1.2 7-1.2 4.6-1.2 4.1-2.2 6.2-2.2 5.4-1.8 3.9-2.4 4.7-2.7 4.6-3.4 5.4-2.4 3.5-4.8 5.7-5 5.6-4.4 4.1-8.1 6.7-8.4 5.5-10 5-10.1 3.9-6.4 1.9-5.4 1-7.3 1.2-6 .7h-65.3v-5.4h58.9l7.6-.4 3.8-.4 4.8-.9 4.9-1 4.6-1.2 5.4-1.9 7.8-3.1 4.7-2.5 5.2-3.1 5.2-3.5 4.2-3.5 5-4.3 4.5-4.6 4-4.5 4.4-6.2 3.8-5.8 3.4-6.6 2.8-6.2 2.6-7 2.1-6.8 1.2-5.8 1-6.6.6-7 .2-5.6-.2-5.8-.6-5.9-.8-6.2-1.4-6-2.1-7.5-2.4-6.6-3.2-7-2.6-4.7-4.6-7.3-6.4-8.4-4-4.6-7.1-6.4-6.4-4.9-8.6-5.4-7.9-3.7-4.8-1.9-4.8-1.6-5.2-1.5-8.3-1.6-9.4-.8-3.2-.2-58.9-.4v-16.6zm-.6 91.5h63.1l2.8.5 3.2.8 3.2 1.2 2.8 1.3 1.4.8 1.9 1 1.4.8 1.8 1.3 2.6 2.3 2.8 2.6 3 3.8 1.6 2.6 2.4 4.6 1.8 4.5 1.2 5 .6 4.3.2 3.7-.2 2.9-.6 3.9-.6 2.9-.8 2.9-1.6 4.1-2.2 4.2-1.4 2-1.8 2.5-2.2 2.5-3.4 3.1-2.6 2.1-2.9 1.8-3.4 1.7-2.8 1.2-3 1-3.6.9-2.6.4-2.8.2h-58.7l-.6-81.4zm.4-52v-16.1h63.3l8.4.6 5 1 4.9 1 4.6 1.5 5.2 1.8 5 2.3 4.6 2.3 4.5 2.9 4.4 2.9 4.6 3.7 3.8 3.5 4 3.9 2.6 2.9 3.5 4.1 3.2 4.6 3 4.7 2.2 4.4 1.8 3.5 2.2 4.9 1.6 4.4 1.4 4.3 1.2 4.9 1.4 6.9.8 8.2.2 7.9-.4 9.5-1 6.8-1.4 5.7-2.2 7.9-3.2 8.2-3.4 7.1-4.2 6.8-5 6.8-6.3 7-4.8 4.6-5.2 4.1-6.6 4.5-8.3 4.1-7.8 3.4-5.8 1.8-7.7 1.7-5.4.8-4.6.4h-63.7v-5.2h60.5l4-.2 3.4-.4 5.4-.8 4.9-1 3.4-1.1 3.8-1.4 5-2.3 3.4-1.4 4.2-2.7 4.1-2.7 3.6-2.9 3.2-2.7 3.8-3.7 2.6-2.7 2.4-3.1 2.4-3.1 2.4-3.9 2.4-3.9 2.3-4.3 2.6-6.2 2.2-6.2 1.6-6.4 1.4-8.1.4-7.4-.2-8.3-.4-5.1-.8-5.6-1.6-6.4-2.2-6.8-2.6-6.4-2.5-5-3.2-5.1-2.6-4-3.4-4.3-4.6-4.9-5-4.6-3.4-2.9-3.5-2.2-4-2.5-4.2-2.3-5.6-2.5-4.8-1.6-5.9-1.7-5.2-1-5-.6-65.1-.6zm-.4 23.4v-16.7l62.5.2 2.8.2 3.6.5 4.2 1 5.1 1.2 3.6 1.3 5.2 1.8 5.6 2.7 4.2 2.7 4.2 2.9 4.1 3.3 4.6 4.5 4.4 4.8 4.2 5.7 3.8 6.4 3.5 7.5 2.2 6.4 1.8 7.2.8 6 .6 7.6-.2 7.9-1 7.2-1.2 5.2-1.4 4.9-2.5 6.4-2.8 6.2-3.6 6-3.4 4.5-4.8 5.8-6 5.6-3.5 2.7-3.2 2.4-3.8 2.5-4.4 2.1-5.8 2.3-5.4 1.8-5.7 1.5-3.6.6-3.2.4h-64.7v-5.2h60.9l2.8-.2 4.8-.6 4.8-1 6.5-2.1 6.2-3.1 4.6-2.5 4-2.6 3.8-3.3 4.5-4.4 4.6-6 2.6-4.3 2.6-5 2-4.7 1.4-4.3.8-3.3.6-2.7.6-3.1.2-2.7.2-3.9.2-5.2-.2-5.4-.4-3.5-.8-4.5-1.2-4.8-1.8-5.7-2.6-6-3.8-6.2-3-4.4-2.4-3-4.9-4.6-4.6-3.5-3.6-2.3-2.8-1.8-3.4-1.7-2.8-1.2-6.1-2.1-4.8-1.2-5.6-.6-4.2-.2-60.5-.3zm.2 22.3v-16.3h62.6l4.4.4 4.3.6 3.2.7 2.8.8 3.6 1.4 3.7 1.7 3.2 1.8 3.2 2.3 3 2.3 3.8 3.7 2.3 2.5 2.4 3.1 3 4.5 1.8 3.1 1.6 3.3 1.4 3.7 1.2 3.7 1.4 5 .6 3.3.4 3.9.4 6-.4 5.8-.6 5.4-1 4.3-1 4.3-2 5-1.6 3.9-2 3.5-2.6 4.1-3.5 4.6-2.4 2.7-2.6 2.4-4.6 3.5-3.8 2.3-3.9 1.9-5.4 2-4.4 1.5-3.2.6-3.1.4h-65.6v-5.3h61l2.2-.3 3-.4 2.7-.6 2.2-.6 5.2-2.1 3.4-1.8 3-1.9 3.9-3.1 4.4-4.5 1.8-2.3 2.4-3.7 3-5.8 2.1-6 1-3.9.8-6.2.2-5.2-.4-5.7-.8-4.4-1.4-5.1-2.3-5-1.2-2.3-1.4-2.4-1.6-2.5-1.6-2.3-3.8-4.1-1.4-1.2-1.8-1.7-1.9-1.2-2.4-1.7-3.2-1.8-2-.9-2.2-.8-2.8-.8-4.1-.8-4.8-.9-61.8-.4z"/></svg>